<?xml version="1.0" standalone="no"?>
<!DOCTYPE svg PUBLIC "-//W3C//DTD SVG 20010904//EN"
 "http://www.w3.org/TR/2001/REC-SVG-20010904/DTD/svg10.dtd">
<svg version="1.0" xmlns="http://www.w3.org/2000/svg"
 width="500.000000pt" height="500.000000pt" viewBox="0 0 500.000000 500.000000"
 preserveAspectRatio="xMidYMid meet">

<g transform="translate(0.000000,500.000000) scale(0.100000,-0.100000)"
fill="#000000" stroke="none">
<path d="M1525 3128 c-16 -5 -103 -51 -192 -102 -139 -78 -159 -92 -140 -99
12 -4 61 -27 108 -51 l86 -43 104 59 c57 32 114 58 127 58 60 0 118 -47 122
-101 5 -53 -1 -72 -34 -105 -28 -28 -41 -34 -78 -34 -73 0 -130 -23 -306 -123
-126 -71 -179 -96 -217 -101 -128 -16 -221 -80 -271 -184 -39 -81 -39 -183 0
-264 54 -115 165 -182 296 -181 79 1 110 14 301 124 128 74 151 84 211 90 126
14 219 77 270 184 46 99 38 213 -22 308 l-30 47 29 45 c85 134 62 300 -57 407
-30 27 -71 51 -102 61 -58 19 -158 21 -205 5z m183 -663 c36 -39 42 -86 17
-134 -15 -30 -69 -61 -106 -61 -22 0 -229 109 -229 120 0 5 42 30 150 87 81
43 119 41 168 -12z m-470 -224 c140 -79 138 -68 19 -134 -111 -62 -148 -69
-198 -40 -76 45 -76 159 0 206 45 28 85 21 179 -32z"/>
<path d="M2425 2849 c-45 -13 -100 -63 -124 -112 -52 -107 -7 -233 103 -289
57 -29 160 -23 211 13 35 25 85 85 85 101 0 4 -25 8 -55 8 -31 0 -55 -5 -55
-10 0 -17 -63 -50 -95 -50 -61 0 -125 67 -125 129 0 56 44 115 97 130 37 11
103 -10 122 -39 10 -15 24 -20 62 -20 27 0 49 2 49 5 0 15 -31 63 -57 87 -55
52 -139 71 -218 47z"/>
<path d="M2901 2653 c45 -109 84 -204 86 -211 4 -8 20 -12 45 -10 l40 3 83
205 84 205 -46 3 c-30 2 -49 -1 -54 -10 -5 -7 -30 -73 -56 -145 -26 -73 -50
-133 -53 -133 -3 0 -28 64 -56 143 l-51 142 -51 3 -51 3 80 -198z"/>
<path d="M2295 2175 c-34 -33 -34 -84 1 -119 35 -35 86 -35 119 -1 14 13 25
33 25 45 0 17 -6 20 -40 20 -29 0 -40 -4 -40 -15 0 -9 9 -15 21 -15 18 0 19
-2 9 -15 -29 -35 -80 -5 -80 46 0 37 40 60 71 41 42 -27 67 -6 27 22 -34 24
-85 20 -113 -9z"/>
<path d="M2510 2115 l0 -85 50 0 c37 0 50 4 50 14 0 9 -12 16 -32 18 -46 4
-53 38 -9 38 40 0 42 27 4 32 -40 4 -36 32 5 36 20 2 32 9 32 18 0 10 -13 14
-50 14 l-50 0 0 -85z"/>
<path d="M2680 2115 c0 -68 3 -85 14 -85 11 0 16 15 18 53 l3 52 29 -52 c19
-34 36 -53 48 -53 16 0 18 9 18 85 0 78 -2 85 -19 85 -17 0 -20 -8 -23 -47
l-3 -48 -25 48 c-15 30 -31 47 -42 47 -16 0 -18 -10 -18 -85z"/>
<path d="M2880 2115 l0 -85 50 0 c37 0 50 4 50 14 0 9 -12 16 -32 18 -46 4
-53 38 -9 38 40 0 42 27 4 32 -40 4 -36 32 5 36 20 2 32 9 32 18 0 10 -13 14
-50 14 l-50 0 0 -85z"/>
<path d="M3050 2115 c0 -69 3 -85 15 -85 9 0 15 9 15 25 0 14 4 25 8 25 5 0
15 -11 22 -25 9 -16 22 -25 37 -25 l24 0 -21 30 c-19 27 -20 31 -6 46 19 18
21 65 4 82 -7 7 -31 12 -55 12 l-43 0 0 -85z m75 30 c0 -30 -39 -27 -43 3 -3
20 0 23 20 20 15 -2 23 -10 23 -23z"/>
<path d="M3248 2118 c-29 -70 -32 -84 -19 -87 8 -2 22 6 29 18 19 28 68 29 77
1 6 -18 46 -30 44 -12 -2 28 -68 157 -80 160 -11 2 -26 -21 -51 -80z m65 2 c3
-13 0 -23 -9 -27 -21 -8 -27 2 -20 32 7 29 21 26 29 -5z"/>
<path d="M3420 2185 c0 -9 9 -15 25 -15 24 0 25 -2 25 -70 0 -63 2 -70 20 -70
18 0 20 7 20 70 0 68 1 70 25 70 16 0 25 6 25 15 0 12 -14 15 -70 15 -56 0
-70 -3 -70 -15z"/>
<path d="M3635 2175 c-53 -53 -15 -145 60 -145 20 0 42 9 59 25 56 52 19 145
-59 145 -25 0 -44 -8 -60 -25z m87 -17 c33 -27 27 -67 -12 -88 -16 -9 -25 -6
-45 14 -16 16 -23 31 -19 43 8 21 33 43 49 43 6 0 18 -6 27 -12z"/>
<path d="M3850 2115 c0 -69 3 -85 15 -85 9 0 15 9 15 25 0 14 4 25 8 25 5 0
15 -11 22 -25 9 -16 22 -25 37 -25 l24 0 -21 30 c-19 27 -20 31 -6 46 19 18
21 65 4 82 -7 7 -31 12 -55 12 l-43 0 0 -85z m75 30 c0 -30 -39 -27 -43 3 -3
20 0 23 20 20 15 -2 23 -10 23 -23z"/>
</g>
</svg>
